<mxfile host="app.diagrams.net" modified="2023-08-31T16:55:38.781Z" agent="Mozilla/5.0 (Windows NT 10.0; Win64; x64) AppleWebKit/537.36 (KHTML, like Gecko) Chrome/116.0.0.0 Safari/537.36" etag="Ffs3MuygEg0n4ZLwr0hg" version="21.7.1" type="github" pages="2">
  <diagram name="helm" id="qljyFYpdPilDl0xy3mIZ">
    <mxGraphModel dx="2074" dy="1110" grid="1" gridSize="10" guides="1" tooltips="1" connect="1" arrows="1" fold="1" page="1" pageScale="1" pageWidth="827" pageHeight="1169" math="0" shadow="0">
      <root>
        <mxCell id="0" />
        <mxCell id="1" parent="0" />
        <UserObject label="tree.odin.intra.xiaojukeji.com" link="tree.odin.intra.xiaojukeji.com" id="P6nUmoXPAQL7M5y37jt2-21">
          <mxCell style="text;whiteSpace=wrap;html=1;fontSize=20;fontFamily=Architects Daughter;" parent="1" vertex="1">
            <mxGeometry x="961" y="20" width="280" height="50" as="geometry" />
          </mxCell>
        </UserObject>
        <mxCell id="P6nUmoXPAQL7M5y37jt2-26" style="edgeStyle=orthogonalEdgeStyle;rounded=0;sketch=1;hachureGap=4;jiggle=2;curveFitting=1;orthogonalLoop=1;jettySize=auto;html=1;fontFamily=Architects Daughter;fontSource=https%3A%2F%2Ffonts.googleapis.com%2Fcss%3Ffamily%3DArchitects%2BDaughter;fontSize=16;" parent="1" source="P6nUmoXPAQL7M5y37jt2-2" target="P6nUmoXPAQL7M5y37jt2-12" edge="1">
          <mxGeometry relative="1" as="geometry" />
        </mxCell>
        <mxCell id="P6nUmoXPAQL7M5y37jt2-2" value="ru01" style="rounded=1;whiteSpace=wrap;html=1;sketch=1;hachureGap=4;jiggle=2;curveFitting=1;fontFamily=Architects Daughter;fontSource=https%3A%2F%2Ffonts.googleapis.com%2Fcss%3Ffamily%3DArchitects%2BDaughter;fontSize=20;flipV=1;flipH=0;" parent="1" vertex="1">
          <mxGeometry x="961" y="162.5" width="80" height="30" as="geometry" />
        </mxCell>
        <mxCell id="P6nUmoXPAQL7M5y37jt2-25" style="edgeStyle=orthogonalEdgeStyle;rounded=0;sketch=1;hachureGap=4;jiggle=2;curveFitting=1;orthogonalLoop=1;jettySize=auto;html=1;entryX=0;entryY=0.5;entryDx=0;entryDy=0;fontFamily=Architects Daughter;fontSource=https%3A%2F%2Ffonts.googleapis.com%2Fcss%3Ffamily%3DArchitects%2BDaughter;fontSize=16;" parent="1" source="P6nUmoXPAQL7M5y37jt2-1" target="P6nUmoXPAQL7M5y37jt2-10" edge="1">
          <mxGeometry relative="1" as="geometry" />
        </mxCell>
        <mxCell id="P6nUmoXPAQL7M5y37jt2-1" value="us01" style="rounded=1;whiteSpace=wrap;html=1;sketch=1;hachureGap=4;jiggle=2;curveFitting=1;fontFamily=Architects Daughter;fontSource=https%3A%2F%2Ffonts.googleapis.com%2Fcss%3Ffamily%3DArchitects%2BDaughter;fontSize=20;flipV=1;flipH=0;" parent="1" vertex="1">
          <mxGeometry x="961" y="111.5" width="80" height="27" as="geometry" />
        </mxCell>
        <mxCell id="P6nUmoXPAQL7M5y37jt2-27" style="edgeStyle=orthogonalEdgeStyle;rounded=0;sketch=1;hachureGap=4;jiggle=2;curveFitting=1;orthogonalLoop=1;jettySize=auto;html=1;entryX=0;entryY=0.5;entryDx=0;entryDy=0;fontFamily=Architects Daughter;fontSource=https%3A%2F%2Ffonts.googleapis.com%2Fcss%3Ffamily%3DArchitects%2BDaughter;fontSize=16;" parent="1" source="P6nUmoXPAQL7M5y37jt2-3" target="P6nUmoXPAQL7M5y37jt2-13" edge="1">
          <mxGeometry relative="1" as="geometry" />
        </mxCell>
        <mxCell id="P6nUmoXPAQL7M5y37jt2-3" value="hna" style="rounded=1;whiteSpace=wrap;html=1;sketch=1;hachureGap=4;jiggle=2;curveFitting=1;fontFamily=Architects Daughter;fontSource=https%3A%2F%2Ffonts.googleapis.com%2Fcss%3Ffamily%3DArchitects%2BDaughter;fontSize=20;flipV=1;flipH=0;" parent="1" vertex="1">
          <mxGeometry x="961" y="217.5" width="80" height="27" as="geometry" />
        </mxCell>
        <mxCell id="P6nUmoXPAQL7M5y37jt2-28" style="edgeStyle=orthogonalEdgeStyle;rounded=0;sketch=1;hachureGap=4;jiggle=2;curveFitting=1;orthogonalLoop=1;jettySize=auto;html=1;entryX=0;entryY=0.5;entryDx=0;entryDy=0;fontFamily=Architects Daughter;fontSource=https%3A%2F%2Ffonts.googleapis.com%2Fcss%3Ffamily%3DArchitects%2BDaughter;fontSize=16;" parent="1" source="P6nUmoXPAQL7M5y37jt2-4" target="P6nUmoXPAQL7M5y37jt2-11" edge="1">
          <mxGeometry relative="1" as="geometry" />
        </mxCell>
        <mxCell id="P6nUmoXPAQL7M5y37jt2-4" value="hnb" style="rounded=1;whiteSpace=wrap;html=1;sketch=1;hachureGap=4;jiggle=2;curveFitting=1;fontFamily=Architects Daughter;fontSource=https%3A%2F%2Ffonts.googleapis.com%2Fcss%3Ffamily%3DArchitects%2BDaughter;fontSize=20;flipV=1;flipH=0;" parent="1" vertex="1">
          <mxGeometry x="961" y="268.5" width="80" height="30" as="geometry" />
        </mxCell>
        <mxCell id="P6nUmoXPAQL7M5y37jt2-10" value="hnaï¼Œhnb" style="rounded=1;whiteSpace=wrap;html=1;sketch=1;hachureGap=4;jiggle=2;curveFitting=1;fontFamily=Architects Daughter;fontSource=https%3A%2F%2Ffonts.googleapis.com%2Fcss%3Ffamily%3DArchitects%2BDaughter;fontSize=20;" parent="1" vertex="1">
          <mxGeometry x="1121" y="110" width="100" height="28.5" as="geometry" />
        </mxCell>
        <mxCell id="P6nUmoXPAQL7M5y37jt2-12" value="hna, hnb" style="rounded=1;whiteSpace=wrap;html=1;sketch=1;hachureGap=4;jiggle=2;curveFitting=1;fontFamily=Architects Daughter;fontSource=https%3A%2F%2Ffonts.googleapis.com%2Fcss%3Ffamily%3DArchitects%2BDaughter;fontSize=20;" parent="1" vertex="1">
          <mxGeometry x="1121" y="162.5" width="100" height="30" as="geometry" />
        </mxCell>
        <mxCell id="P6nUmoXPAQL7M5y37jt2-13" value="hna" style="rounded=1;whiteSpace=wrap;html=1;sketch=1;hachureGap=4;jiggle=2;curveFitting=1;fontFamily=Architects Daughter;fontSource=https%3A%2F%2Ffonts.googleapis.com%2Fcss%3Ffamily%3DArchitects%2BDaughter;fontSize=20;" parent="1" vertex="1">
          <mxGeometry x="1121" y="216.5" width="100" height="27" as="geometry" />
        </mxCell>
        <mxCell id="P6nUmoXPAQL7M5y37jt2-11" value="hnb" style="rounded=1;whiteSpace=wrap;html=1;sketch=1;hachureGap=4;jiggle=2;curveFitting=1;fontFamily=Architects Daughter;fontSource=https%3A%2F%2Ffonts.googleapis.com%2Fcss%3Ffamily%3DArchitects%2BDaughter;fontSize=20;" parent="1" vertex="1">
          <mxGeometry x="1121" y="268.5" width="100" height="30" as="geometry" />
        </mxCell>
        <mxCell id="P6nUmoXPAQL7M5y37jt2-22" value="helm router" style="text;html=1;align=center;verticalAlign=middle;resizable=0;points=[];autosize=1;strokeColor=none;fillColor=none;fontSize=20;fontFamily=Architects Daughter;" parent="1" vertex="1">
          <mxGeometry x="961" y="70" width="130" height="40" as="geometry" />
        </mxCell>
        <mxCell id="P6nUmoXPAQL7M5y37jt2-23" value="IDC" style="text;html=1;align=center;verticalAlign=middle;resizable=0;points=[];autosize=1;strokeColor=none;fillColor=none;fontSize=20;fontFamily=Architects Daughter;" parent="1" vertex="1">
          <mxGeometry x="1121" y="71.5" width="50" height="40" as="geometry" />
        </mxCell>
        <mxCell id="GFBUtdNidqZKx8SICxak-32" style="edgeStyle=orthogonalEdgeStyle;shape=connector;rounded=0;sketch=1;jiggle=2;curveFitting=1;orthogonalLoop=1;jettySize=auto;html=1;exitX=0.563;exitY=0.03;exitDx=0;exitDy=0;entryX=0.5;entryY=1;entryDx=0;entryDy=0;labelBackgroundColor=default;strokeColor=default;fontFamily=Architects Daughter;fontSource=https%3A%2F%2Ffonts.googleapis.com%2Fcss%3Ffamily%3DArchitects%2BDaughter;fontSize=20;fontColor=default;endArrow=classic;exitPerimeter=0;" edge="1" parent="1" source="GFBUtdNidqZKx8SICxak-2" target="GFBUtdNidqZKx8SICxak-31">
          <mxGeometry relative="1" as="geometry" />
        </mxCell>
        <mxCell id="GFBUtdNidqZKx8SICxak-41" style="edgeStyle=orthogonalEdgeStyle;shape=connector;rounded=0;sketch=1;jiggle=2;curveFitting=1;orthogonalLoop=1;jettySize=auto;html=1;entryX=0;entryY=0.5;entryDx=0;entryDy=0;labelBackgroundColor=default;strokeColor=default;fontFamily=Architects Daughter;fontSource=https%3A%2F%2Ffonts.googleapis.com%2Fcss%3Ffamily%3DArchitects%2BDaughter;fontSize=20;fontColor=default;endArrow=classic;" edge="1" parent="1" source="GFBUtdNidqZKx8SICxak-2" target="GFBUtdNidqZKx8SICxak-40">
          <mxGeometry relative="1" as="geometry" />
        </mxCell>
        <mxCell id="GFBUtdNidqZKx8SICxak-42" style="edgeStyle=orthogonalEdgeStyle;shape=connector;rounded=0;sketch=1;jiggle=2;curveFitting=1;orthogonalLoop=1;jettySize=auto;html=1;entryX=0.5;entryY=0;entryDx=0;entryDy=0;labelBackgroundColor=default;strokeColor=default;fontFamily=Architects Daughter;fontSource=https%3A%2F%2Ffonts.googleapis.com%2Fcss%3Ffamily%3DArchitects%2BDaughter;fontSize=20;fontColor=default;endArrow=classic;" edge="1" parent="1" source="GFBUtdNidqZKx8SICxak-2" target="GFBUtdNidqZKx8SICxak-3">
          <mxGeometry relative="1" as="geometry" />
        </mxCell>
        <mxCell id="GFBUtdNidqZKx8SICxak-2" value="wtree" style="rounded=0;whiteSpace=wrap;html=1;sketch=1;hachureGap=4;jiggle=2;curveFitting=1;strokeColor=default;fontFamily=Architects Daughter;fontSource=https%3A%2F%2Ffonts.googleapis.com%2Fcss%3Ffamily%3DArchitects%2BDaughter;fontSize=20;fontColor=default;fillColor=default;" vertex="1" parent="1">
          <mxGeometry x="510" y="243" width="160" height="100" as="geometry" />
        </mxCell>
        <mxCell id="GFBUtdNidqZKx8SICxak-39" style="edgeStyle=orthogonalEdgeStyle;shape=connector;rounded=0;sketch=1;jiggle=2;curveFitting=1;orthogonalLoop=1;jettySize=auto;html=1;entryX=0;entryY=0.5;entryDx=0;entryDy=0;labelBackgroundColor=default;strokeColor=default;fontFamily=Architects Daughter;fontSource=https%3A%2F%2Ffonts.googleapis.com%2Fcss%3Ffamily%3DArchitects%2BDaughter;fontSize=20;fontColor=default;endArrow=classic;" edge="1" parent="1" source="GFBUtdNidqZKx8SICxak-3" target="GFBUtdNidqZKx8SICxak-38">
          <mxGeometry relative="1" as="geometry" />
        </mxCell>
        <mxCell id="GFBUtdNidqZKx8SICxak-3" value="apiserver" style="rounded=0;whiteSpace=wrap;html=1;sketch=1;hachureGap=4;jiggle=2;curveFitting=1;strokeColor=default;fontFamily=Architects Daughter;fontSource=https%3A%2F%2Ffonts.googleapis.com%2Fcss%3Ffamily%3DArchitects%2BDaughter;fontSize=20;fontColor=default;fillColor=default;" vertex="1" parent="1">
          <mxGeometry x="510" y="460" width="160" height="100" as="geometry" />
        </mxCell>
        <mxCell id="GFBUtdNidqZKx8SICxak-36" style="edgeStyle=orthogonalEdgeStyle;shape=connector;rounded=0;sketch=1;jiggle=2;curveFitting=1;orthogonalLoop=1;jettySize=auto;html=1;entryX=0;entryY=0.5;entryDx=0;entryDy=0;labelBackgroundColor=default;strokeColor=default;fontFamily=Architects Daughter;fontSource=https%3A%2F%2Ffonts.googleapis.com%2Fcss%3Ffamily%3DArchitects%2BDaughter;fontSize=20;fontColor=default;endArrow=classic;" edge="1" parent="1" source="GFBUtdNidqZKx8SICxak-4" target="GFBUtdNidqZKx8SICxak-2">
          <mxGeometry relative="1" as="geometry" />
        </mxCell>
        <mxCell id="GFBUtdNidqZKx8SICxak-4" value="" style="ellipse;shape=cloud;whiteSpace=wrap;html=1;rounded=1;sketch=1;hachureGap=4;jiggle=2;curveFitting=1;strokeColor=default;fontFamily=Architects Daughter;fontSource=https%3A%2F%2Ffonts.googleapis.com%2Fcss%3Ffamily%3DArchitects%2BDaughter;fontSize=20;fontColor=default;fillColor=default;" vertex="1" parent="1">
          <mxGeometry x="190" y="253" width="120" height="80" as="geometry" />
        </mxCell>
        <mxCell id="GFBUtdNidqZKx8SICxak-8" value="post/put/delete/get" style="text;html=1;align=center;verticalAlign=middle;resizable=0;points=[];autosize=1;strokeColor=none;fillColor=none;fontSize=20;fontFamily=Architects Daughter;fontColor=default;" vertex="1" parent="1">
          <mxGeometry x="300" y="253" width="200" height="40" as="geometry" />
        </mxCell>
        <mxCell id="GFBUtdNidqZKx8SICxak-37" style="edgeStyle=orthogonalEdgeStyle;shape=connector;rounded=0;sketch=1;jiggle=2;curveFitting=1;orthogonalLoop=1;jettySize=auto;html=1;entryX=0;entryY=0.5;entryDx=0;entryDy=0;labelBackgroundColor=default;strokeColor=default;fontFamily=Architects Daughter;fontSource=https%3A%2F%2Ffonts.googleapis.com%2Fcss%3Ffamily%3DArchitects%2BDaughter;fontSize=20;fontColor=default;endArrow=classic;" edge="1" parent="1" source="GFBUtdNidqZKx8SICxak-9" target="GFBUtdNidqZKx8SICxak-3">
          <mxGeometry relative="1" as="geometry" />
        </mxCell>
        <mxCell id="GFBUtdNidqZKx8SICxak-9" value="" style="ellipse;shape=cloud;whiteSpace=wrap;html=1;rounded=1;sketch=1;hachureGap=4;jiggle=2;curveFitting=1;strokeColor=default;fontFamily=Architects Daughter;fontSource=https%3A%2F%2Ffonts.googleapis.com%2Fcss%3Ffamily%3DArchitects%2BDaughter;fontSize=20;fontColor=default;fillColor=default;" vertex="1" parent="1">
          <mxGeometry x="190" y="470" width="120" height="80" as="geometry" />
        </mxCell>
        <mxCell id="GFBUtdNidqZKx8SICxak-11" value="get/list/watch" style="text;html=1;align=center;verticalAlign=middle;resizable=0;points=[];autosize=1;strokeColor=none;fillColor=none;fontSize=20;fontFamily=Architects Daughter;fontColor=default;" vertex="1" parent="1">
          <mxGeometry x="325" y="460" width="150" height="40" as="geometry" />
        </mxCell>
        <mxCell id="GFBUtdNidqZKx8SICxak-44" style="edgeStyle=orthogonalEdgeStyle;shape=connector;rounded=0;sketch=1;jiggle=2;curveFitting=1;orthogonalLoop=1;jettySize=auto;html=1;entryX=0.5;entryY=0;entryDx=0;entryDy=0;labelBackgroundColor=default;strokeColor=default;fontFamily=Architects Daughter;fontSource=https%3A%2F%2Ffonts.googleapis.com%2Fcss%3Ffamily%3DArchitects%2BDaughter;fontSize=20;fontColor=default;endArrow=classic;" edge="1" parent="1" source="GFBUtdNidqZKx8SICxak-14" target="GFBUtdNidqZKx8SICxak-15">
          <mxGeometry relative="1" as="geometry" />
        </mxCell>
        <mxCell id="GFBUtdNidqZKx8SICxak-65" style="edgeStyle=orthogonalEdgeStyle;shape=connector;rounded=0;sketch=1;jiggle=2;curveFitting=1;orthogonalLoop=1;jettySize=auto;html=1;labelBackgroundColor=default;strokeColor=default;fontFamily=Architects Daughter;fontSource=https%3A%2F%2Ffonts.googleapis.com%2Fcss%3Ffamily%3DArchitects%2BDaughter;fontSize=20;fontColor=default;endArrow=classic;entryX=0;entryY=0.5;entryDx=0;entryDy=0;" edge="1" parent="1" source="GFBUtdNidqZKx8SICxak-14" target="GFBUtdNidqZKx8SICxak-48">
          <mxGeometry relative="1" as="geometry">
            <mxPoint x="750" y="800" as="targetPoint" />
          </mxGeometry>
        </mxCell>
        <mxCell id="GFBUtdNidqZKx8SICxak-14" value="wtree" style="rounded=0;whiteSpace=wrap;html=1;sketch=1;hachureGap=4;jiggle=2;curveFitting=1;strokeColor=default;fontFamily=Architects Daughter;fontSource=https%3A%2F%2Ffonts.googleapis.com%2Fcss%3Ffamily%3DArchitects%2BDaughter;fontSize=20;fontColor=default;fillColor=default;" vertex="1" parent="1">
          <mxGeometry x="500" y="750" width="160" height="100" as="geometry" />
        </mxCell>
        <mxCell id="GFBUtdNidqZKx8SICxak-61" style="shape=connector;rounded=0;sketch=1;jiggle=2;curveFitting=1;orthogonalLoop=1;jettySize=auto;html=1;labelBackgroundColor=default;strokeColor=default;fontFamily=Architects Daughter;fontSource=https%3A%2F%2Ffonts.googleapis.com%2Fcss%3Ffamily%3DArchitects%2BDaughter;fontSize=20;fontColor=default;endArrow=classic;exitX=1;exitY=0.25;exitDx=0;exitDy=0;" edge="1" parent="1" source="GFBUtdNidqZKx8SICxak-15" target="GFBUtdNidqZKx8SICxak-48">
          <mxGeometry relative="1" as="geometry" />
        </mxCell>
        <mxCell id="GFBUtdNidqZKx8SICxak-62" style="shape=connector;rounded=0;sketch=1;jiggle=2;curveFitting=1;orthogonalLoop=1;jettySize=auto;html=1;labelBackgroundColor=default;strokeColor=default;fontFamily=Architects Daughter;fontSource=https%3A%2F%2Ffonts.googleapis.com%2Fcss%3Ffamily%3DArchitects%2BDaughter;fontSize=20;fontColor=default;endArrow=classic;exitX=1.038;exitY=0.347;exitDx=0;exitDy=0;exitPerimeter=0;" edge="1" parent="1" source="GFBUtdNidqZKx8SICxak-15" target="GFBUtdNidqZKx8SICxak-49">
          <mxGeometry relative="1" as="geometry" />
        </mxCell>
        <mxCell id="GFBUtdNidqZKx8SICxak-63" style="shape=connector;rounded=0;sketch=1;jiggle=2;curveFitting=1;orthogonalLoop=1;jettySize=auto;html=1;entryX=0;entryY=0.5;entryDx=0;entryDy=0;labelBackgroundColor=default;strokeColor=default;fontFamily=Architects Daughter;fontSource=https%3A%2F%2Ffonts.googleapis.com%2Fcss%3Ffamily%3DArchitects%2BDaughter;fontSize=20;fontColor=default;endArrow=classic;exitX=1.017;exitY=0.613;exitDx=0;exitDy=0;exitPerimeter=0;" edge="1" parent="1" source="GFBUtdNidqZKx8SICxak-15" target="GFBUtdNidqZKx8SICxak-26">
          <mxGeometry relative="1" as="geometry" />
        </mxCell>
        <mxCell id="GFBUtdNidqZKx8SICxak-64" style="shape=connector;rounded=0;sketch=1;jiggle=2;curveFitting=1;orthogonalLoop=1;jettySize=auto;html=1;entryX=0;entryY=0.5;entryDx=0;entryDy=0;labelBackgroundColor=default;strokeColor=default;fontFamily=Architects Daughter;fontSource=https%3A%2F%2Ffonts.googleapis.com%2Fcss%3Ffamily%3DArchitects%2BDaughter;fontSize=20;fontColor=default;endArrow=classic;" edge="1" parent="1" source="GFBUtdNidqZKx8SICxak-15" target="GFBUtdNidqZKx8SICxak-25">
          <mxGeometry relative="1" as="geometry" />
        </mxCell>
        <mxCell id="GFBUtdNidqZKx8SICxak-15" value="&amp;nbsp; &amp;nbsp;apiserver" style="rounded=0;whiteSpace=wrap;html=1;sketch=1;hachureGap=4;jiggle=2;curveFitting=1;strokeColor=default;fontFamily=Architects Daughter;fontSource=https%3A%2F%2Ffonts.googleapis.com%2Fcss%3Ffamily%3DArchitects%2BDaughter;fontSize=20;fontColor=default;fillColor=default;align=left;" vertex="1" parent="1">
          <mxGeometry x="500" y="960" width="160" height="100" as="geometry" />
        </mxCell>
        <mxCell id="GFBUtdNidqZKx8SICxak-46" style="edgeStyle=orthogonalEdgeStyle;shape=connector;rounded=0;sketch=1;jiggle=2;curveFitting=1;orthogonalLoop=1;jettySize=auto;html=1;entryX=0;entryY=0.5;entryDx=0;entryDy=0;labelBackgroundColor=default;strokeColor=default;fontFamily=Architects Daughter;fontSource=https%3A%2F%2Ffonts.googleapis.com%2Fcss%3Ffamily%3DArchitects%2BDaughter;fontSize=20;fontColor=default;endArrow=classic;" edge="1" parent="1" source="GFBUtdNidqZKx8SICxak-17" target="GFBUtdNidqZKx8SICxak-14">
          <mxGeometry relative="1" as="geometry" />
        </mxCell>
        <mxCell id="GFBUtdNidqZKx8SICxak-17" value="http client" style="ellipse;shape=cloud;whiteSpace=wrap;html=1;rounded=1;sketch=1;hachureGap=4;jiggle=2;curveFitting=1;strokeColor=default;fontFamily=Architects Daughter;fontSource=https%3A%2F%2Ffonts.googleapis.com%2Fcss%3Ffamily%3DArchitects%2BDaughter;fontSize=20;fontColor=default;fillColor=default;" vertex="1" parent="1">
          <mxGeometry x="130" y="760" width="160" height="80" as="geometry" />
        </mxCell>
        <mxCell id="GFBUtdNidqZKx8SICxak-18" value="post/put/delete/get" style="text;html=1;align=center;verticalAlign=middle;resizable=0;points=[];autosize=1;strokeColor=none;fillColor=none;fontSize=20;fontFamily=Architects Daughter;fontColor=default;" vertex="1" parent="1">
          <mxGeometry x="300" y="750" width="200" height="40" as="geometry" />
        </mxCell>
        <mxCell id="GFBUtdNidqZKx8SICxak-47" style="edgeStyle=orthogonalEdgeStyle;shape=connector;rounded=0;sketch=1;jiggle=2;curveFitting=1;orthogonalLoop=1;jettySize=auto;html=1;entryX=0;entryY=0.5;entryDx=0;entryDy=0;labelBackgroundColor=default;strokeColor=default;fontFamily=Architects Daughter;fontSource=https%3A%2F%2Ffonts.googleapis.com%2Fcss%3Ffamily%3DArchitects%2BDaughter;fontSize=20;fontColor=default;endArrow=classic;" edge="1" parent="1" source="GFBUtdNidqZKx8SICxak-20" target="GFBUtdNidqZKx8SICxak-15">
          <mxGeometry relative="1" as="geometry" />
        </mxCell>
        <mxCell id="GFBUtdNidqZKx8SICxak-20" value="kubectl" style="ellipse;shape=cloud;whiteSpace=wrap;html=1;rounded=1;sketch=1;hachureGap=4;jiggle=2;curveFitting=1;strokeColor=default;fontFamily=Architects Daughter;fontSource=https%3A%2F%2Ffonts.googleapis.com%2Fcss%3Ffamily%3DArchitects%2BDaughter;fontSize=20;fontColor=default;fillColor=default;" vertex="1" parent="1">
          <mxGeometry x="150" y="970" width="120" height="80" as="geometry" />
        </mxCell>
        <mxCell id="GFBUtdNidqZKx8SICxak-21" value="post/put/delete&lt;br&gt;get/list/watch" style="text;html=1;align=center;verticalAlign=middle;resizable=0;points=[];autosize=1;strokeColor=none;fillColor=none;fontSize=20;fontFamily=Architects Daughter;fontColor=default;" vertex="1" parent="1">
          <mxGeometry x="280" y="1030" width="170" height="60" as="geometry" />
        </mxCell>
        <mxCell id="GFBUtdNidqZKx8SICxak-23" value="SSO" style="rounded=0;whiteSpace=wrap;html=1;sketch=1;hachureGap=4;jiggle=2;curveFitting=1;strokeColor=default;fontFamily=Architects Daughter;fontSource=https%3A%2F%2Ffonts.googleapis.com%2Fcss%3Ffamily%3DArchitects%2BDaughter;fontSize=20;fontColor=default;fillColor=default;" vertex="1" parent="1">
          <mxGeometry x="941" y="1070" width="120" height="60" as="geometry" />
        </mxCell>
        <mxCell id="GFBUtdNidqZKx8SICxak-24" value="Perm" style="rounded=0;whiteSpace=wrap;html=1;sketch=1;hachureGap=4;jiggle=2;curveFitting=1;strokeColor=default;fontFamily=Architects Daughter;fontSource=https%3A%2F%2Ffonts.googleapis.com%2Fcss%3Ffamily%3DArchitects%2BDaughter;fontSize=20;fontColor=default;fillColor=default;" vertex="1" parent="1">
          <mxGeometry x="941" y="980" width="120" height="60" as="geometry" />
        </mxCell>
        <mxCell id="GFBUtdNidqZKx8SICxak-35" style="edgeStyle=orthogonalEdgeStyle;shape=connector;rounded=0;sketch=1;jiggle=2;curveFitting=1;orthogonalLoop=1;jettySize=auto;html=1;entryX=0;entryY=0.5;entryDx=0;entryDy=0;labelBackgroundColor=default;strokeColor=default;fontFamily=Architects Daughter;fontSource=https%3A%2F%2Ffonts.googleapis.com%2Fcss%3Ffamily%3DArchitects%2BDaughter;fontSize=20;fontColor=default;endArrow=classic;" edge="1" parent="1" source="GFBUtdNidqZKx8SICxak-25" target="GFBUtdNidqZKx8SICxak-23">
          <mxGeometry relative="1" as="geometry" />
        </mxCell>
        <mxCell id="GFBUtdNidqZKx8SICxak-25" value="Authn" style="rounded=1;whiteSpace=wrap;html=1;sketch=1;hachureGap=4;jiggle=2;curveFitting=1;strokeColor=default;fontFamily=Architects Daughter;fontSource=https%3A%2F%2Ffonts.googleapis.com%2Fcss%3Ffamily%3DArchitects%2BDaughter;fontSize=20;fontColor=default;fillColor=default;" vertex="1" parent="1">
          <mxGeometry x="760" y="1080" width="80" height="40" as="geometry" />
        </mxCell>
        <mxCell id="GFBUtdNidqZKx8SICxak-34" style="edgeStyle=orthogonalEdgeStyle;shape=connector;rounded=0;sketch=1;jiggle=2;curveFitting=1;orthogonalLoop=1;jettySize=auto;html=1;entryX=0;entryY=0.5;entryDx=0;entryDy=0;labelBackgroundColor=default;strokeColor=default;fontFamily=Architects Daughter;fontSource=https%3A%2F%2Ffonts.googleapis.com%2Fcss%3Ffamily%3DArchitects%2BDaughter;fontSize=20;fontColor=default;endArrow=classic;" edge="1" parent="1" source="GFBUtdNidqZKx8SICxak-26" target="GFBUtdNidqZKx8SICxak-24">
          <mxGeometry relative="1" as="geometry" />
        </mxCell>
        <mxCell id="GFBUtdNidqZKx8SICxak-26" value="Authz" style="rounded=1;whiteSpace=wrap;html=1;sketch=1;hachureGap=4;jiggle=2;curveFitting=1;strokeColor=default;fontFamily=Architects Daughter;fontSource=https%3A%2F%2Ffonts.googleapis.com%2Fcss%3Ffamily%3DArchitects%2BDaughter;fontSize=20;fontColor=default;fillColor=default;" vertex="1" parent="1">
          <mxGeometry x="760" y="990" width="80" height="40" as="geometry" />
        </mxCell>
        <mxCell id="GFBUtdNidqZKx8SICxak-31" value="kube-odin" style="rounded=0;whiteSpace=wrap;html=1;sketch=1;hachureGap=4;jiggle=2;curveFitting=1;strokeColor=default;fontFamily=Architects Daughter;fontSource=https%3A%2F%2Ffonts.googleapis.com%2Fcss%3Ffamily%3DArchitects%2BDaughter;fontSize=20;fontColor=default;fillColor=default;" vertex="1" parent="1">
          <mxGeometry x="540" y="110" width="120" height="60" as="geometry" />
        </mxCell>
        <mxCell id="GFBUtdNidqZKx8SICxak-33" value="watch" style="text;html=1;align=center;verticalAlign=middle;resizable=0;points=[];autosize=1;strokeColor=none;fillColor=none;fontSize=20;fontFamily=Architects Daughter;fontColor=default;" vertex="1" parent="1">
          <mxGeometry x="500" y="177.5" width="80" height="40" as="geometry" />
        </mxCell>
        <mxCell id="GFBUtdNidqZKx8SICxak-38" value="etcd" style="ellipse;whiteSpace=wrap;html=1;aspect=fixed;rounded=1;sketch=1;hachureGap=4;jiggle=2;curveFitting=1;strokeColor=default;fontFamily=Architects Daughter;fontSource=https%3A%2F%2Ffonts.googleapis.com%2Fcss%3Ffamily%3DArchitects%2BDaughter;fontSize=20;fontColor=default;fillColor=default;" vertex="1" parent="1">
          <mxGeometry x="760" y="470" width="80" height="80" as="geometry" />
        </mxCell>
        <mxCell id="GFBUtdNidqZKx8SICxak-40" value="mysql" style="ellipse;whiteSpace=wrap;html=1;aspect=fixed;rounded=1;sketch=1;hachureGap=4;jiggle=2;curveFitting=1;strokeColor=default;fontFamily=Architects Daughter;fontSource=https%3A%2F%2Ffonts.googleapis.com%2Fcss%3Ffamily%3DArchitects%2BDaughter;fontSize=20;fontColor=default;fillColor=default;" vertex="1" parent="1">
          <mxGeometry x="760" y="253" width="80" height="80" as="geometry" />
        </mxCell>
        <mxCell id="GFBUtdNidqZKx8SICxak-43" value="sync" style="text;html=1;align=center;verticalAlign=middle;resizable=0;points=[];autosize=1;strokeColor=none;fillColor=none;fontSize=20;fontFamily=Architects Daughter;fontColor=default;" vertex="1" parent="1">
          <mxGeometry x="600" y="380" width="70" height="40" as="geometry" />
        </mxCell>
        <mxCell id="GFBUtdNidqZKx8SICxak-45" value="sync" style="text;html=1;align=center;verticalAlign=middle;resizable=0;points=[];autosize=1;strokeColor=none;fillColor=none;fontSize=20;fontFamily=Architects Daughter;fontColor=default;" vertex="1" parent="1">
          <mxGeometry x="590" y="880" width="70" height="40" as="geometry" />
        </mxCell>
        <mxCell id="GFBUtdNidqZKx8SICxak-48" value="mysql" style="ellipse;whiteSpace=wrap;html=1;aspect=fixed;rounded=1;sketch=1;hachureGap=4;jiggle=2;curveFitting=1;strokeColor=default;fontFamily=Architects Daughter;fontSource=https%3A%2F%2Ffonts.googleapis.com%2Fcss%3Ffamily%3DArchitects%2BDaughter;fontSize=20;fontColor=default;fillColor=default;" vertex="1" parent="1">
          <mxGeometry x="760" y="760" width="80" height="80" as="geometry" />
        </mxCell>
        <mxCell id="GFBUtdNidqZKx8SICxak-49" value="etcd" style="ellipse;whiteSpace=wrap;html=1;aspect=fixed;rounded=1;sketch=1;hachureGap=4;jiggle=2;curveFitting=1;strokeColor=default;fontFamily=Architects Daughter;fontSource=https%3A%2F%2Ffonts.googleapis.com%2Fcss%3Ffamily%3DArchitects%2BDaughter;fontSize=20;fontColor=default;fillColor=default;" vertex="1" parent="1">
          <mxGeometry x="760" y="880" width="80" height="80" as="geometry" />
        </mxCell>
        <mxCell id="GFBUtdNidqZKx8SICxak-53" style="edgeStyle=orthogonalEdgeStyle;shape=connector;rounded=0;sketch=1;jiggle=2;curveFitting=1;orthogonalLoop=1;jettySize=auto;html=1;exitX=0.5;exitY=1;exitDx=0;exitDy=0;labelBackgroundColor=default;strokeColor=default;fontFamily=Architects Daughter;fontSource=https%3A%2F%2Ffonts.googleapis.com%2Fcss%3Ffamily%3DArchitects%2BDaughter;fontSize=20;fontColor=default;endArrow=classic;" edge="1" parent="1" source="GFBUtdNidqZKx8SICxak-25" target="GFBUtdNidqZKx8SICxak-25">
          <mxGeometry relative="1" as="geometry" />
        </mxCell>
      </root>
    </mxGraphModel>
  </diagram>
  <diagram id="Tuvo6eahYmjbQdjnCb6b" name="ç¬¬ 2 é¡µ">
    <mxGraphModel dx="1357" dy="745" grid="1" gridSize="10" guides="1" tooltips="1" connect="1" arrows="1" fold="1" page="1" pageScale="1" pageWidth="827" pageHeight="1169" math="0" shadow="0">
      <root>
        <mxCell id="0" />
        <mxCell id="1" parent="0" />
        <mxCell id="N0sAZorKS038n1nEeUIO-1" value="degrade" style="rounded=0;whiteSpace=wrap;html=1;sketch=1;hachureGap=4;jiggle=2;curveFitting=1;fontFamily=Architects Daughter;fontSource=https%3A%2F%2Ffonts.googleapis.com%2Fcss%3Ffamily%3DArchitects%2BDaughter;fontSize=20;" vertex="1" parent="1">
          <mxGeometry x="110" y="370" width="120" height="60" as="geometry" />
        </mxCell>
        <mxCell id="N0sAZorKS038n1nEeUIO-9" style="edgeStyle=orthogonalEdgeStyle;rounded=0;sketch=1;hachureGap=4;jiggle=2;curveFitting=1;orthogonalLoop=1;jettySize=auto;html=1;entryX=1;entryY=0.5;entryDx=0;entryDy=0;fontFamily=Architects Daughter;fontSource=https%3A%2F%2Ffonts.googleapis.com%2Fcss%3Ffamily%3DArchitects%2BDaughter;fontSize=16;" edge="1" parent="1" source="N0sAZorKS038n1nEeUIO-2" target="N0sAZorKS038n1nEeUIO-1">
          <mxGeometry relative="1" as="geometry" />
        </mxCell>
        <mxCell id="N0sAZorKS038n1nEeUIO-2" value="logcollect" style="rounded=0;whiteSpace=wrap;html=1;sketch=1;hachureGap=4;jiggle=2;curveFitting=1;fontFamily=Architects Daughter;fontSource=https%3A%2F%2Ffonts.googleapis.com%2Fcss%3Ffamily%3DArchitects%2BDaughter;fontSize=20;" vertex="1" parent="1">
          <mxGeometry x="480" y="200" width="120" height="60" as="geometry" />
        </mxCell>
        <mxCell id="N0sAZorKS038n1nEeUIO-14" style="edgeStyle=orthogonalEdgeStyle;rounded=0;sketch=1;hachureGap=4;jiggle=2;curveFitting=1;orthogonalLoop=1;jettySize=auto;html=1;entryX=1;entryY=0.5;entryDx=0;entryDy=0;fontFamily=Architects Daughter;fontSource=https%3A%2F%2Ffonts.googleapis.com%2Fcss%3Ffamily%3DArchitects%2BDaughter;fontSize=16;" edge="1" parent="1" source="N0sAZorKS038n1nEeUIO-3" target="N0sAZorKS038n1nEeUIO-1">
          <mxGeometry relative="1" as="geometry" />
        </mxCell>
        <mxCell id="N0sAZorKS038n1nEeUIO-3" value="feige" style="rounded=0;whiteSpace=wrap;html=1;sketch=1;hachureGap=4;jiggle=2;curveFitting=1;fontFamily=Architects Daughter;fontSource=https%3A%2F%2Ffonts.googleapis.com%2Fcss%3Ffamily%3DArchitects%2BDaughter;fontSize=20;" vertex="1" parent="1">
          <mxGeometry x="480" y="560" width="120" height="60" as="geometry" />
        </mxCell>
        <mxCell id="N0sAZorKS038n1nEeUIO-13" style="edgeStyle=orthogonalEdgeStyle;rounded=0;sketch=1;hachureGap=4;jiggle=2;curveFitting=1;orthogonalLoop=1;jettySize=auto;html=1;entryX=1;entryY=0.5;entryDx=0;entryDy=0;fontFamily=Architects Daughter;fontSource=https%3A%2F%2Ffonts.googleapis.com%2Fcss%3Ffamily%3DArchitects%2BDaughter;fontSize=16;" edge="1" parent="1" source="N0sAZorKS038n1nEeUIO-4" target="N0sAZorKS038n1nEeUIO-1">
          <mxGeometry relative="1" as="geometry" />
        </mxCell>
        <mxCell id="N0sAZorKS038n1nEeUIO-4" value="cert" style="rounded=0;whiteSpace=wrap;html=1;sketch=1;hachureGap=4;jiggle=2;curveFitting=1;fontFamily=Architects Daughter;fontSource=https%3A%2F%2Ffonts.googleapis.com%2Fcss%3Ffamily%3DArchitects%2BDaughter;fontSize=20;" vertex="1" parent="1">
          <mxGeometry x="480" y="430" width="120" height="60" as="geometry" />
        </mxCell>
        <mxCell id="N0sAZorKS038n1nEeUIO-12" style="edgeStyle=orthogonalEdgeStyle;rounded=0;sketch=1;hachureGap=4;jiggle=2;curveFitting=1;orthogonalLoop=1;jettySize=auto;html=1;entryX=1;entryY=0.5;entryDx=0;entryDy=0;fontFamily=Architects Daughter;fontSource=https%3A%2F%2Ffonts.googleapis.com%2Fcss%3Ffamily%3DArchitects%2BDaughter;fontSize=16;" edge="1" parent="1" source="N0sAZorKS038n1nEeUIO-5" target="N0sAZorKS038n1nEeUIO-1">
          <mxGeometry relative="1" as="geometry" />
        </mxCell>
        <mxCell id="N0sAZorKS038n1nEeUIO-5" value="perm" style="rounded=0;whiteSpace=wrap;html=1;sketch=1;hachureGap=4;jiggle=2;curveFitting=1;fontFamily=Architects Daughter;fontSource=https%3A%2F%2Ffonts.googleapis.com%2Fcss%3Ffamily%3DArchitects%2BDaughter;fontSize=20;" vertex="1" parent="1">
          <mxGeometry x="480" y="310" width="120" height="60" as="geometry" />
        </mxCell>
        <mxCell id="N0sAZorKS038n1nEeUIO-8" value="&lt;h1 style=&quot;font-size: 10px;&quot;&gt;&lt;font style=&quot;font-size: 10px;&quot; face=&quot;Courier New&quot;&gt;Register&lt;/font&gt;&lt;/h1&gt;&lt;p style=&quot;font-size: 10px;&quot;&gt;&lt;font style=&quot;font-size: 10px;&quot; face=&quot;Courier New&quot;&gt;type Degrader interface {&lt;/font&gt;&lt;/p&gt;&lt;p style=&quot;font-size: 10px;&quot;&gt;&lt;font style=&quot;font-size: 10px;&quot; face=&quot;Courier New&quot;&gt;&amp;nbsp; &amp;nbsp; &amp;nbsp; SetDegrade(bool) error&lt;/font&gt;&lt;/p&gt;&lt;p style=&quot;font-size: 10px;&quot;&gt;&lt;font style=&quot;font-size: 10px;&quot; face=&quot;Courier New&quot;&gt;&amp;nbsp; &amp;nbsp; &amp;nbsp; IsDegrade() bool&lt;/font&gt;&lt;/p&gt;&lt;p style=&quot;font-size: 10px;&quot;&gt;&lt;font style=&quot;font-size: 10px;&quot; face=&quot;Courier New&quot;&gt;}&lt;/font&gt;&lt;/p&gt;" style="text;html=1;strokeColor=none;fillColor=none;spacing=5;spacingTop=-20;whiteSpace=wrap;overflow=hidden;rounded=0;fontSize=20;fontFamily=Architects Daughter;" vertex="1" parent="1">
          <mxGeometry x="170" y="260" width="190" height="100" as="geometry" />
        </mxCell>
      </root>
    </mxGraphModel>
  </diagram>
</mxfile>
